<svg width="32" height="32" viewBox="0 0 32 32" fill="none" xmlns="http://www.w3.org/2000/svg">
<rect width="32" height="32" rx="6" fill="white"/>
<path d="M13.3542 25C14.0593 25.6224 14.9856 26 16 26C17.0144 26 17.9407 25.6224 18.6458 25M22 12C22 10.4087 21.3679 8.88258 20.2426 7.75736C19.1174 6.63214 17.5913 6 16 6C14.4087 6 12.8826 6.63214 11.7574 7.75736C10.6321 8.88258 10 10.4087 10 12C10 15.0902 9.22047 17.206 8.34966 18.6054C7.61513 19.7859 7.24786 20.3761 7.26132 20.5408C7.27624 20.7231 7.31486 20.7926 7.46178 20.9016C7.59446 21 8.19259 21 9.38885 21H22.6111C23.8074 21 24.4055 21 24.5382 20.9016C24.6851 20.7926 24.7238 20.7231 24.7387 20.5408C24.7521 20.3761 24.3849 19.7859 23.6503 18.6054C22.7795 17.206 22 15.0902 22 12Z" stroke="#667085" stroke-width="1.66667" stroke-linecap="round" stroke-linejoin="round"/>
<circle cx="24" cy="8" r="5" fill="#F04438" stroke="white" stroke-width="2"/>
</svg>
