<svg width="32" height="32" viewBox="0 0 32 32" fill="none" xmlns="http://www.w3.org/2000/svg">
<path d="M26.6666 9.33341V9.06675C26.6666 6.82654 26.6666 5.70643 26.2307 4.85079C25.8472 4.09814 25.2353 3.48622 24.4826 3.10272C23.627 2.66675 22.5069 2.66675 20.2666 2.66675H11.7333C9.4931 2.66675 8.373 2.66675 7.51735 3.10272C6.7647 3.48622 6.15278 4.09814 5.76929 4.85079C5.33331 5.70643 5.33331 6.82654 5.33331 9.06675V22.9334C5.33331 25.1736 5.33331 26.2937 5.76929 27.1494C6.15278 27.902 6.7647 28.5139 7.51735 28.8974C8.373 29.3334 9.4931 29.3334 11.7333 29.3334H16.6666M16.6666 14.6667H10.6666M15.3333 20.0001H10.6666M21.3333 9.33341H10.6666M24 24.0001V16.6667C24 15.5622 24.8954 14.6667 26 14.6667C27.1045 14.6667 28 15.5622 28 16.6667V24.0001C28 26.2092 26.2091 28.0001 24 28.0001C21.7908 28.0001 20 26.2092 20 24.0001V18.6667" stroke="#344054" stroke-width="2.4" stroke-linecap="round" stroke-linejoin="round"/>
</svg>
