<svg width="32" height="32" viewBox="0 0 32 32" fill="none" xmlns="http://www.w3.org/2000/svg">
<path d="M15.8632 20.3057H15.8624C13.4162 20.3057 11.4331 22.2887 11.4331 24.735V24.7358C11.4331 27.182 13.4162 29.1651 15.8624 29.1651H15.8632C18.3095 29.1651 20.2926 27.182 20.2926 24.7358V24.735C20.2926 22.2887 18.3095 20.3057 15.8632 20.3057Z" stroke="#667985" stroke-width="2" stroke-miterlimit="10"/>
<path d="M6.27362 8.67302C8.18858 6.75805 11.2934 6.75805 13.2075 8.67302L14.3867 9.85221L15.8623 11.327L17.4612 9.72808L18.5171 8.6722C20.4321 6.75724 23.5368 6.75724 25.451 8.6722L21.0878 4.30903L19.5648 2.78604C17.52 0.741241 14.2046 0.741241 12.1598 2.78604L6.26709 8.67873" stroke="#667985" stroke-width="2" stroke-miterlimit="10"/>
<path d="M29.2442 12.4662L28.9159 12.1379L26.6947 9.91674L25.451 8.67304C23.536 6.75808 20.4313 6.75808 18.5171 8.67304L17.4612 9.72892L15.8623 11.3279L23.1228 18.5884C24.8132 20.2788 27.5538 20.2788 29.2442 18.5884C30.9346 16.898 30.9346 14.1574 29.2442 12.467V12.4662Z" stroke="#667985" stroke-width="2" stroke-miterlimit="10"/>
<path d="M14.3877 9.85272L13.2085 8.67353C11.2935 6.75856 8.18873 6.75856 6.27459 8.67353L5.15338 9.79474L2.48142 12.4667C0.791025 14.1571 0.791025 16.8976 2.48142 18.588C4.17181 20.2784 6.91237 20.2784 8.60276 18.588L8.93104 18.2598L15.8633 11.3283L14.3877 9.85353V9.85272Z" stroke="#667985" stroke-width="2" stroke-miterlimit="10"/>
</svg>
