<svg width="142" height="714" viewBox="0 0 142 714" fill="none" xmlns="http://www.w3.org/2000/svg">
<mask id="mask0_1_5182" style="mask-type:alpha" maskUnits="userSpaceOnUse" x="0" y="0" width="142" height="714">
<path fill-rule="evenodd" clip-rule="evenodd" d="M114.187 604.755L106.716 612.227L87.5032 631.439C81.2646 637.678 81.2646 647.829 87.5032 654.068L106.716 673.28L114.187 680.75C120.426 686.989 130.577 686.989 136.816 680.75C139.934 677.632 141.495 673.534 141.495 669.437C141.495 665.34 139.934 661.242 136.816 658.124L121.445 642.753L136.816 627.383C143.054 621.145 143.054 610.994 136.816 604.755C130.577 598.517 120.426 598.517 114.187 604.755ZM133.4 661.538C137.755 665.894 137.755 672.98 133.4 677.336C129.045 681.691 121.958 681.691 117.603 677.336L110.131 669.864C108.021 667.754 106.861 664.949 106.861 661.965C106.861 658.981 108.021 656.176 110.131 654.068L118.031 646.169L133.4 661.538ZM106.716 650.652C103.74 653.627 102.083 657.567 102.033 661.764L90.9191 650.652C86.5643 646.297 86.5643 639.21 90.9191 634.855L102.033 623.741C102.083 627.94 103.74 631.88 106.716 634.855L114.615 642.753L106.716 650.652ZM133.4 608.171C137.755 612.526 137.755 619.613 133.4 623.968L118.031 639.338L110.132 631.439C108.021 629.329 106.861 626.525 106.861 623.54C106.861 620.556 108.021 617.752 110.132 615.643L117.603 608.171C121.958 603.816 129.045 603.816 133.4 608.171ZM114.187 461.753L106.716 469.225L87.5032 488.437C81.2646 494.676 81.2646 504.827 87.5032 511.066L106.716 530.278L114.187 537.748C120.426 543.987 130.577 543.987 136.816 537.748C139.934 534.63 141.495 530.532 141.495 526.435C141.495 522.338 139.934 518.24 136.816 515.122L121.445 499.751L136.816 484.382C143.054 478.143 143.054 467.992 136.816 461.753C130.577 455.515 120.426 455.515 114.187 461.753ZM133.4 534.334C129.045 538.689 121.958 538.689 117.603 534.334L110.131 526.862C108.021 524.752 106.861 521.947 106.861 518.963C106.861 515.979 108.021 513.174 110.131 511.066L118.031 503.167L133.4 518.536C137.755 522.892 137.755 529.978 133.4 534.334ZM106.716 507.65C103.74 510.625 102.083 514.565 102.033 518.762L90.9191 507.65C86.5643 503.295 86.5643 496.208 90.9191 491.853L102.033 480.739C102.083 484.938 103.74 488.878 106.716 491.853L114.615 499.751L106.716 507.65ZM133.4 465.169C137.755 469.524 137.755 476.611 133.4 480.966L118.031 496.336L110.132 488.437C108.021 486.327 106.861 483.523 106.861 480.538C106.861 477.554 108.021 474.75 110.132 472.641L117.603 465.169C121.958 460.814 129.045 460.814 133.4 465.169ZM114.187 319.241L106.716 326.713L87.5032 345.926C81.2646 352.164 81.2646 362.315 87.5032 368.554L106.716 387.766L114.187 395.237C120.426 401.475 130.577 401.475 136.816 395.237C139.934 392.118 141.495 388.02 141.495 383.923C141.495 379.827 139.934 375.728 136.816 372.61L121.445 357.239L136.816 341.87C143.054 335.631 143.054 325.48 136.816 319.241C130.577 313.003 120.426 313.003 114.187 319.241ZM133.4 391.822C129.045 396.177 121.958 396.177 117.603 391.822L110.131 384.35C108.021 382.24 106.861 379.436 106.861 376.451C106.861 373.467 108.021 370.663 110.131 368.554L118.031 360.655L133.4 376.024C137.755 380.381 137.755 387.466 133.4 391.822ZM106.716 365.138C103.74 368.113 102.083 372.053 102.033 376.251L90.9191 365.138C86.5643 360.783 86.5643 353.696 90.9191 349.342L102.033 338.227C102.083 342.427 103.74 346.366 106.716 349.342L114.615 357.239L106.716 365.138ZM133.4 322.657C137.755 327.012 137.755 334.099 133.4 338.454L118.031 353.825L110.131 345.926C108.021 343.815 106.861 341.011 106.861 338.027C106.861 335.042 108.021 332.238 110.131 330.129L117.603 322.657C121.958 318.303 129.045 318.303 133.4 322.657ZM40.2224 321.272L32.7506 313.8C26.512 307.561 26.512 297.41 32.7506 291.172C38.9892 284.933 49.1403 284.933 55.3789 291.172L70.7482 306.542L86.119 291.172C89.2376 288.053 93.3358 286.492 97.4324 286.492C101.529 286.492 105.627 288.053 108.746 291.172C114.984 297.41 114.984 307.561 108.746 313.8L101.276 321.272L82.0631 340.484C75.8245 346.723 65.6734 346.723 59.4348 340.484L40.2224 321.272ZM105.331 294.587C100.975 290.233 93.8897 290.233 89.5334 294.587L74.1641 309.957L82.0631 317.856C84.1718 319.966 86.9764 321.127 89.9606 321.127C92.9448 321.127 95.7494 319.966 97.8596 317.856L105.331 310.384C109.686 306.029 109.686 298.942 105.331 294.587ZM89.7599 325.954C85.562 325.904 81.6224 324.247 78.6472 321.272L70.7482 313.373L62.8507 321.272C59.8756 324.247 55.9359 325.904 51.7366 325.954L62.8507 337.068C67.2055 341.423 74.2924 341.423 78.6472 337.068L89.7599 325.954ZM51.963 294.587C47.6082 290.233 40.5213 290.233 36.1665 294.587C31.8117 298.942 31.8117 306.029 36.1665 310.384L43.6383 317.856C45.747 319.966 48.5516 321.127 51.5358 321.127C54.52 321.127 57.3246 319.966 59.4348 317.856L67.3338 309.957L51.963 294.587ZM101.274 393.206L108.746 400.678C114.984 406.916 114.984 417.067 108.746 423.306C102.507 429.544 92.3561 429.544 86.1175 423.306L70.7482 407.935L55.3774 423.306C52.2588 426.424 48.1606 427.985 44.064 427.985C39.9673 427.985 35.8691 426.424 32.7506 423.306C26.512 417.067 26.512 406.916 32.7506 400.678L40.2209 393.206L59.4333 373.993C65.6719 367.755 75.823 367.755 82.0616 373.993L101.274 393.206ZM36.165 419.89C40.5213 424.245 47.6067 424.245 51.963 419.89L67.3323 404.521L59.4333 396.622C57.3246 394.511 54.52 393.351 51.5358 393.351C48.5516 393.351 45.747 394.511 43.6368 396.622L36.165 404.094C31.8102 408.448 31.8102 415.535 36.165 419.89ZM51.7365 388.523C55.9343 388.573 59.874 390.231 62.8492 393.206L70.7482 401.105L78.6457 393.206C81.6208 390.231 85.5605 388.573 89.7598 388.523L78.6457 377.409C74.2909 373.055 67.204 373.055 62.8492 377.409L51.7365 388.523ZM89.5334 419.89C93.8882 424.245 100.975 424.245 105.33 419.89C109.685 415.535 109.685 408.448 105.33 404.094L97.8581 396.622C95.7493 394.511 92.9448 393.351 89.9606 393.351C86.9764 393.351 84.1718 394.511 82.0616 396.622L74.1626 404.521L89.5334 419.89ZM34.7795 387.765L27.3077 395.237C21.0691 401.475 10.918 401.475 4.67937 395.237C-1.55922 388.998 -1.55922 378.847 4.67937 372.608L20.0502 357.239L4.67937 341.868C1.56084 338.75 4.70776e-05 334.652 4.72567e-05 330.555C4.74358e-05 326.458 1.56084 322.36 4.67937 319.241C10.918 313.003 21.0691 313.003 27.3077 319.241L34.7795 326.712L53.9919 345.924C60.2305 352.163 60.2305 362.314 53.9919 368.552L34.7795 387.765ZM8.09528 322.656C3.7405 327.012 3.7405 334.098 8.09528 338.454L23.4646 353.823L31.3636 345.924C33.4738 343.815 34.6346 341.009 34.6346 338.027C34.6346 335.042 33.4738 332.238 31.3636 330.128L23.8918 322.656C19.537 318.301 12.4501 318.301 8.09528 322.656ZM39.4618 338.227C39.412 342.425 37.7546 346.365 34.7795 349.34L26.8805 357.239L34.7795 365.137C37.7546 368.112 39.412 372.051 39.4618 376.251L50.576 365.137C54.9308 360.782 54.9308 353.695 50.576 349.34L39.4618 338.227ZM8.09528 376.024C3.74049 380.379 3.74049 387.466 8.09527 391.821C12.4501 396.176 19.537 396.176 23.8918 391.821L31.3636 384.349C33.4738 382.24 34.6346 379.436 34.6346 376.451C34.6346 373.467 33.4738 370.663 31.3636 368.552L23.4646 360.653L8.09528 376.024ZM32.7506 170.308L40.2224 177.779L59.4348 196.992C65.6734 203.23 75.8245 203.23 82.0631 196.992L101.276 177.779L108.746 170.308C114.984 164.069 114.984 153.918 108.746 147.679C105.627 144.561 101.529 143 97.4324 143C93.3358 143 89.2376 144.561 86.119 147.679L70.7482 163.05L55.3789 147.679C49.1403 141.441 38.9892 141.441 32.7506 147.679C26.512 153.918 26.512 164.069 32.7506 170.308ZM89.5334 151.095C93.8897 146.74 100.975 146.74 105.331 151.095C109.686 155.45 109.686 162.537 105.331 166.892L97.8596 174.364C95.7494 176.474 92.9448 177.635 89.9606 177.635C86.9764 177.635 84.1718 176.474 82.0631 174.364L74.1641 166.465L89.5334 151.095ZM78.6472 177.779C81.6224 180.755 85.5621 182.412 89.7599 182.462L78.6472 193.576C74.2924 197.931 67.2055 197.931 62.8507 193.576L51.7366 182.462C55.9359 182.412 59.8756 180.755 62.8507 177.779L70.7482 169.88L78.6472 177.779ZM36.1665 151.095C40.5213 146.74 47.6082 146.74 51.963 151.095L67.3338 166.465L59.4348 174.364C57.3246 176.474 54.52 177.635 51.5358 177.635C48.5516 177.635 45.747 176.474 43.6383 174.364L36.1665 166.892C31.8117 162.537 31.8117 155.45 36.1665 151.095ZM101.274 249.714L108.746 257.185C114.984 263.424 114.984 273.575 108.746 279.814C102.507 286.052 92.3561 286.052 86.1175 279.814L70.7482 264.443L55.3774 279.814C52.2588 282.932 48.1606 284.493 44.064 284.493C39.9673 284.493 35.8691 282.932 32.7506 279.814C26.512 273.575 26.512 263.424 32.7506 257.185L40.2209 249.714L59.4333 230.501C65.6719 224.263 75.823 224.263 82.0616 230.501L101.274 249.714ZM36.165 276.398C40.5213 280.753 47.6067 280.753 51.963 276.398L67.3323 261.029L59.4333 253.13C57.3246 251.019 54.52 249.859 51.5358 249.859C48.5516 249.859 45.747 251.019 43.6368 253.13L36.165 260.601C31.8102 264.956 31.8102 272.043 36.165 276.398ZM51.7365 245.031C55.9343 245.081 59.874 246.738 62.8492 249.714L70.7482 257.613L78.6457 249.714C81.6208 246.738 85.5605 245.081 89.7598 245.031L78.6457 233.917C74.2909 229.562 67.204 229.562 62.8492 233.917L51.7365 245.031ZM89.5334 276.398C93.8882 280.753 100.975 280.753 105.33 276.398C109.685 272.043 109.685 264.956 105.33 260.601L97.8581 253.13C95.7493 251.019 92.9448 249.859 89.9606 249.859C86.9764 249.859 84.1718 251.019 82.0616 253.13L74.1626 261.029L89.5334 276.398ZM114.187 175.749L106.716 183.221L87.5032 202.433C81.2646 208.672 81.2646 218.823 87.5032 225.062L106.716 244.274L114.187 251.744C120.426 257.983 130.577 257.983 136.816 251.744C139.934 248.626 141.495 244.528 141.495 240.431C141.495 236.334 139.934 232.236 136.816 229.118L121.445 213.747L136.816 198.378C143.054 192.139 143.054 181.988 136.816 175.749C130.577 169.511 120.426 169.511 114.187 175.749ZM133.4 232.532C137.755 236.888 137.755 243.974 133.4 248.33C129.045 252.685 121.958 252.685 117.603 248.33L110.131 240.858C108.021 238.748 106.861 235.943 106.861 232.959C106.861 229.975 108.021 227.17 110.131 225.062L118.031 217.163L133.4 232.532ZM106.716 221.646C103.74 224.621 102.083 228.561 102.033 232.759L90.9191 221.646C86.5643 217.291 86.5643 210.204 90.9191 205.849L102.033 194.735C102.083 198.935 103.74 202.874 106.716 205.849L114.615 213.747L106.716 221.646ZM133.4 179.165C137.755 183.52 137.755 190.607 133.4 194.962L118.031 210.332L110.131 202.433C108.021 200.323 106.861 197.519 106.861 194.534C106.861 191.55 108.021 188.746 110.132 186.637L117.603 179.165C121.958 174.81 129.045 174.81 133.4 179.165ZM34.7795 244.273L27.3077 251.744C21.0691 257.983 10.918 257.983 4.67937 251.744C-1.55923 245.506 -1.55923 235.355 4.67937 229.116L20.0502 213.747L4.67937 198.376C1.56083 195.258 5.33499e-05 191.159 5.35289e-05 187.063C5.3708e-05 182.966 1.56083 178.868 4.67938 175.749C10.918 169.511 21.0691 169.511 27.3077 175.749L34.7795 183.22L53.9919 202.432C60.2305 208.671 60.2305 218.822 53.9919 225.06L34.7795 244.273ZM8.09528 179.164C3.74049 183.52 3.74049 190.605 8.09528 194.962L23.4646 210.331L31.3636 202.432C33.4738 200.323 34.6346 197.517 34.6346 194.534C34.6346 191.55 33.4738 188.746 31.3636 186.635L23.8918 179.164C19.537 174.809 12.4501 174.809 8.09528 179.164ZM39.4619 194.735C39.412 198.933 37.7546 202.873 34.7795 205.848L26.8805 213.747L34.7795 221.644C37.7546 224.62 39.412 228.559 39.4619 232.759L50.576 221.644C54.9308 217.29 54.9308 210.203 50.576 205.848L39.4619 194.735ZM8.09528 232.532C3.74048 236.887 3.74048 243.974 8.09528 248.329C12.4501 252.683 19.537 252.683 23.8918 248.329L31.3636 240.857C33.4738 238.748 34.6346 235.943 34.6346 232.959C34.6346 229.975 33.4738 227.17 31.3636 225.06L23.4646 217.161L8.09528 232.532ZM32.7506 27.3076L40.2224 34.7794L59.4348 53.9918C65.6734 60.2304 75.8245 60.2304 82.0631 53.9918L101.275 34.7794L108.746 27.3076C114.984 21.069 114.984 10.9179 108.746 4.67933C105.627 1.56079 101.529 4.43798e-06 97.4324 4.2589e-06C93.3357 4.07983e-06 89.2376 1.56078 86.119 4.67933L70.7482 20.0501L55.3789 4.67933C49.1403 -1.55927 38.9892 -1.55927 32.7506 4.67932C26.512 10.9179 26.512 21.069 32.7506 27.3076ZM89.5334 8.09523C93.8897 3.74044 100.975 3.74044 105.331 8.09523C109.686 12.45 109.686 19.5369 105.331 23.8917L97.8596 31.3635C95.7494 33.4738 92.9448 34.6345 89.9606 34.6345C86.9764 34.6345 84.1718 33.4738 82.0631 31.3635L74.1641 23.4645L89.5334 8.09523ZM78.6472 34.7794C81.6223 37.7546 85.562 39.412 89.7598 39.4618L78.6472 50.5759C74.2924 54.9307 67.2055 54.9307 62.8507 50.5759L51.7366 39.4618C55.9359 39.412 59.8756 37.7546 62.8507 34.7794L70.7482 26.8804L78.6472 34.7794ZM36.1665 8.09523C40.5213 3.74044 47.6082 3.74044 51.963 8.09523L67.3338 23.4645L59.4348 31.3635C57.3246 33.4738 54.52 34.6345 51.5358 34.6345C48.5516 34.6345 45.747 33.4738 43.6383 31.3635L36.1665 23.8917C31.8117 19.5369 31.8117 12.45 36.1665 8.09523ZM101.274 106.714L108.746 114.185C114.984 120.424 114.984 130.575 108.746 136.814C102.507 143.052 92.3561 143.052 86.1175 136.814L70.7481 121.443L55.3773 136.814C52.2588 139.932 48.1606 141.493 44.0639 141.493C39.9673 141.493 35.8691 139.932 32.7505 136.814C26.5119 130.575 26.5119 120.424 32.7505 114.185L40.2208 106.714L59.4332 87.5012C65.6718 81.2626 75.823 81.2626 82.0615 87.5012L101.274 106.714ZM36.1649 133.398C40.5212 137.753 47.6066 137.753 51.9629 133.398L67.3323 118.029L59.4332 110.13C57.3245 108.019 54.52 106.859 51.5358 106.859C48.5516 106.859 45.747 108.019 43.6368 110.13L36.1649 117.601C31.8101 121.956 31.8101 129.043 36.1649 133.398ZM51.7365 102.031C55.9343 102.081 59.874 103.738 62.8491 106.714L70.7481 114.613L78.6456 106.714C81.6208 103.738 85.5605 102.081 89.7598 102.031L78.6456 90.9171C74.2909 86.5623 67.2039 86.5623 62.8491 90.9171L51.7365 102.031ZM89.5334 133.398C93.8882 137.753 100.975 137.753 105.33 133.398C109.685 129.043 109.685 121.956 105.33 117.601L97.858 110.13C95.7493 108.019 92.9447 106.859 89.9605 106.859C86.9763 106.859 84.1718 108.019 82.0615 110.13L74.1626 118.029L89.5334 133.398ZM114.187 32.7493L106.716 40.2211L87.5032 59.4335C81.2646 65.6721 81.2646 75.8232 87.5032 82.0618L106.716 101.274L114.187 108.744C120.426 114.983 130.577 114.983 136.816 108.744C139.934 105.626 141.495 101.528 141.495 97.4311C141.495 93.3344 139.934 89.2362 136.816 86.1177L121.445 70.7469L136.816 55.3776C143.054 49.139 143.054 38.9879 136.816 32.7493C130.577 26.5107 120.426 26.5107 114.187 32.7493ZM133.4 89.5321C137.755 93.8884 137.755 100.974 133.4 105.33C129.045 109.685 121.958 109.685 117.603 105.33L110.131 97.8583C108.021 95.748 106.86 92.9435 106.86 89.9593C106.86 86.9751 108.021 84.1705 110.131 82.0618L118.03 74.1628L133.4 89.5321ZM106.716 78.6459C103.74 81.621 102.083 85.5607 102.033 89.7585L90.9191 78.6459C86.5643 74.2911 86.5643 67.2042 90.9191 62.8494L102.033 51.7352C102.083 55.9345 103.74 59.8742 106.716 62.8494L114.615 70.7469L106.716 78.6459ZM133.4 36.1652C137.755 40.52 137.755 47.6069 133.4 51.9617L118.03 67.3325L110.131 59.4335C108.021 57.3233 106.86 54.5187 106.86 51.5345C106.86 48.5503 108.021 45.7457 110.131 43.637L117.603 36.1652C121.958 31.8104 129.045 31.8104 133.4 36.1652ZM34.7795 101.273L27.3077 108.744C21.0691 114.983 10.9179 114.983 4.67935 108.744C-1.55925 102.506 -1.55925 92.3548 4.67935 86.1162L20.0502 70.7469L4.67935 55.376C1.5608 52.2575 2.9083e-05 48.1593 2.92621e-05 44.0627C2.94411e-05 39.966 1.56081 35.8678 4.67935 32.7493C10.9179 26.5107 21.0691 26.5107 27.3077 32.7493L34.7795 40.2196L53.9919 59.432C60.2305 65.6706 60.2305 75.8217 53.9919 82.0603L34.7795 101.273ZM8.09526 36.1637C3.74046 40.52 3.74046 47.6054 8.09526 51.9617L23.4646 67.331L31.3636 59.432C33.4738 57.3233 34.6346 54.5172 34.6346 51.5345C34.6346 48.5503 33.4738 45.7457 31.3636 43.6355L23.8918 36.1637C19.537 31.8089 12.45 31.8089 8.09526 36.1637ZM39.4618 51.7352C39.412 55.933 37.7546 59.8727 34.7795 62.8479L26.8805 70.7469L34.7795 78.6444C37.7546 81.6195 39.412 85.5592 39.4618 89.7585L50.576 78.6444C54.9308 74.2896 54.9308 67.2027 50.576 62.8479L39.4618 51.7352ZM8.09526 89.5321C3.74046 93.8869 3.74046 100.974 8.09526 105.329C12.45 109.683 19.537 109.683 23.8918 105.329L31.3636 97.8568C33.4738 95.748 34.6346 92.9435 34.6346 89.9593C34.6346 86.9751 33.4738 84.1705 31.3636 82.0603L23.4646 74.1613L8.09526 89.5321ZM32.7506 456.312L40.2224 463.783L59.4348 482.996C65.6734 489.234 75.8245 489.234 82.0631 482.996L101.276 463.783L108.746 456.312C114.984 450.073 114.984 439.922 108.746 433.683C105.627 430.565 101.529 429.004 97.4324 429.004C93.3358 429.004 89.2376 430.565 86.119 433.683L70.7482 449.054L55.3789 433.683C49.1403 427.445 38.9892 427.445 32.7506 433.683C26.512 439.922 26.512 450.073 32.7506 456.312ZM89.5334 437.099C93.8897 432.744 100.975 432.744 105.331 437.099C109.686 441.454 109.686 448.541 105.331 452.896L97.8596 460.368C95.7494 462.478 92.9448 463.639 89.9606 463.639C86.9764 463.639 84.1718 462.478 82.0631 460.368L74.1641 452.469L89.5334 437.099ZM78.6472 463.783C81.6224 466.759 85.562 468.416 89.7599 468.466L78.6472 479.58C74.2924 483.935 67.2055 483.935 62.8507 479.58L51.7366 468.466C55.9359 468.416 59.8756 466.759 62.8507 463.783L70.7482 455.884L78.6472 463.783ZM36.1665 437.099C40.5213 432.744 47.6082 432.744 51.963 437.099L67.3338 452.469L59.4348 460.368C57.3246 462.478 54.52 463.639 51.5358 463.639C48.5516 463.639 45.7471 462.478 43.6383 460.368L36.1665 452.896C31.8117 448.541 31.8117 441.454 36.1665 437.099ZM101.274 535.718L108.746 543.189C114.984 549.428 114.984 559.579 108.746 565.818C102.507 572.056 92.3561 572.056 86.1175 565.818L70.7482 550.447L55.3774 565.818C52.2588 568.936 48.1606 570.497 44.064 570.497C39.9673 570.497 35.8691 568.936 32.7506 565.818C26.512 559.579 26.512 549.428 32.7506 543.189L40.2209 535.718L59.4333 516.505C65.6719 510.267 75.823 510.267 82.0616 516.505L101.274 535.718ZM36.165 546.605C31.8102 550.96 31.8102 558.047 36.165 562.402C40.5213 566.757 47.6067 566.757 51.963 562.402L67.3323 547.032L59.4333 539.133C57.3246 537.023 54.52 535.862 51.5358 535.862C48.5516 535.862 45.747 537.023 43.6368 539.133L36.165 546.605ZM51.7365 531.035C55.9343 531.085 59.874 532.742 62.8492 535.718L70.7482 543.617L78.6457 535.718C81.6208 532.742 85.5605 531.085 89.7598 531.035L78.6457 519.921C74.2909 515.566 67.204 515.566 62.8492 519.921L51.7365 531.035ZM89.5334 562.402C93.8882 566.757 100.975 566.757 105.33 562.402C109.685 558.047 109.685 550.96 105.33 546.605L97.8581 539.133C95.7493 537.023 92.9448 535.862 89.9606 535.862C86.9764 535.862 84.1718 537.023 82.0616 539.133L74.1626 547.032L89.5334 562.402ZM34.7795 530.277L27.3077 537.748C21.0691 543.987 10.918 543.987 4.67937 537.748C-1.55923 531.51 -1.55923 521.359 4.67938 515.12L20.0502 499.751L4.67938 484.38C1.56083 481.261 5.6107e-05 477.163 5.62861e-05 473.067C5.64652e-05 468.97 1.56083 464.872 4.67938 461.753C10.918 455.515 21.0691 455.515 27.3077 461.753L34.7795 469.223L53.9919 488.436C60.2305 494.674 60.2305 504.826 53.9919 511.064L34.7795 530.277ZM8.09529 465.168C3.74049 469.524 3.74049 476.609 8.09529 480.966L23.4646 496.335L31.3636 488.436C33.4738 486.327 34.6346 483.521 34.6346 480.538C34.6346 477.554 33.4738 474.75 31.3636 472.639L23.8918 465.168C19.537 460.813 12.4501 460.813 8.09529 465.168ZM39.4618 480.739C39.412 484.937 37.7546 488.877 34.7795 491.852L26.8805 499.751L34.7795 507.648C37.7546 510.623 39.412 514.563 39.4618 518.762L50.576 507.648C54.9308 503.293 54.9308 496.207 50.576 491.852L39.4618 480.739ZM8.09528 518.536C3.74049 522.891 3.74049 529.978 8.09528 534.333C12.4501 538.687 19.537 538.687 23.8918 534.333L31.3636 526.861C33.4738 524.752 34.6346 521.947 34.6346 518.963C34.6346 515.979 33.4738 513.174 31.3636 511.064L23.4646 503.165L8.09528 518.536ZM32.7506 599.315L40.2224 606.787L59.4348 626C65.6734 632.238 75.8245 632.238 82.0631 626L101.276 606.787L108.746 599.315C114.984 593.077 114.984 582.926 108.746 576.687C105.627 573.569 101.529 572.008 97.4324 572.008C93.3358 572.008 89.2376 573.569 86.119 576.687L70.7482 592.058L55.3789 576.687C49.1403 570.449 38.9892 570.449 32.7506 576.687C26.512 582.926 26.512 593.077 32.7506 599.315ZM89.5334 580.103C93.8897 575.748 100.975 575.748 105.331 580.103C109.686 584.458 109.686 591.545 105.331 595.9L97.8596 603.371C95.7494 605.482 92.9448 606.642 89.9606 606.642C86.9764 606.642 84.1718 605.482 82.0631 603.371L74.1641 595.472L89.5334 580.103ZM78.6472 606.787C81.6224 609.762 85.5621 611.42 89.7599 611.47L78.6472 622.584C74.2924 626.939 67.2055 626.939 62.8507 622.584L51.7366 611.47C55.9359 611.42 59.8756 609.762 62.8507 606.787L70.7482 598.888L78.6472 606.787ZM36.1665 580.103C40.5213 575.748 47.6082 575.748 51.963 580.103L67.3338 595.472L59.4348 603.371C57.3246 605.482 54.52 606.642 51.5358 606.642C48.5516 606.642 45.7471 605.482 43.6383 603.371L36.1665 595.9C31.8117 591.545 31.8117 584.458 36.1665 580.103ZM101.274 678.721L108.746 686.193C114.984 692.432 114.984 702.583 108.746 708.822C102.507 715.06 92.3561 715.06 86.1175 708.822L70.7482 693.451L55.3774 708.822C52.2588 711.94 48.1606 713.501 44.064 713.501C39.9673 713.501 35.8691 711.94 32.7506 708.822C26.512 702.583 26.512 692.432 32.7506 686.193L40.2209 678.721L59.4333 659.509C65.6719 653.27 75.823 653.27 82.0616 659.509L101.274 678.721ZM36.165 689.609C31.8102 693.964 31.8102 701.051 36.165 705.406C40.5213 709.76 47.6067 709.76 51.963 705.406L67.3323 690.036L59.4333 682.137C57.3246 680.027 54.52 678.866 51.5358 678.866C48.5516 678.866 45.747 680.027 43.6368 682.137L36.165 689.609ZM51.7365 674.039C55.9343 674.089 59.874 675.746 62.8492 678.721L70.7482 686.62L78.6457 678.721C81.6208 675.746 85.5605 674.089 89.7598 674.039L78.6457 662.925C74.2909 658.57 67.204 658.57 62.8492 662.925L51.7365 674.039ZM89.5334 705.406C93.8882 709.76 100.975 709.76 105.33 705.406C109.685 701.051 109.685 693.964 105.33 689.609L97.8581 682.137C95.7493 680.027 92.9448 678.866 89.9606 678.866C86.9764 678.866 84.1718 680.027 82.0616 682.137L74.1626 690.036L89.5334 705.406ZM34.7795 673.279L27.3077 680.75C21.0691 686.989 10.918 686.989 4.67937 680.75C-1.55922 674.512 -1.55922 664.361 4.67937 658.122L20.0502 642.753L4.67937 627.382C1.56083 624.263 4.98562e-05 620.165 5.00353e-05 616.068C5.02143e-05 611.972 1.56083 607.874 4.67937 604.755C10.918 598.517 21.0691 598.517 27.3077 604.755L34.7795 612.225L53.9919 631.438C60.2305 637.676 60.2305 647.828 53.9919 654.066L34.7795 673.279ZM8.09528 608.169C3.7405 612.526 3.7405 619.611 8.09528 623.968L23.4646 639.337L31.3636 631.438C33.4738 629.329 34.6346 626.523 34.6346 623.54C34.6346 620.556 33.4738 617.752 31.3636 615.641L23.8918 608.169C19.537 603.815 12.4501 603.815 8.09528 608.169ZM39.4618 623.741C39.412 627.939 37.7546 631.879 34.7795 634.854L26.8805 642.753L34.7795 650.65C37.7546 653.625 39.412 657.565 39.4618 661.764L50.576 650.65C54.9308 646.295 54.9308 639.208 50.576 634.854L39.4618 623.741ZM8.09528 661.538C3.7405 665.893 3.7405 672.98 8.09528 677.334C12.4501 681.689 19.537 681.689 23.8918 677.334L31.3636 669.863C33.4738 667.754 34.6346 664.949 34.6346 661.965C34.6346 658.981 33.4738 656.176 31.3636 654.066L23.4646 646.167L8.09528 661.538Z" fill="#F9FAFB"/>
</mask>
<g mask="url(#mask0_1_5182)">
<g opacity="0.4" filter="url(#filter0_f_1_5182)">
<circle cx="32" cy="32" r="32" transform="matrix(-1 0 0 1 103.003 73)" fill="#49B3F3"/>
</g>
<g opacity="0.4" filter="url(#filter1_f_1_5182)">
<circle cx="32" cy="32" r="32" transform="matrix(-1 0 0 1 103.003 235)" fill="#49B3F3"/>
</g>
<g filter="url(#filter2_f_1_5182)">
<circle cx="41" cy="41" r="41" transform="matrix(-1 0 0 1 112.001 131)" fill="#1004A4"/>
</g>
<g opacity="0.24" filter="url(#filter3_f_1_5182)">
<ellipse cx="41" cy="41.5" rx="41" ry="41.5" transform="matrix(-1 0 0 1 112.001 318)" fill="#1004A4"/>
</g>
<g filter="url(#filter4_f_1_5182)">
<ellipse cx="41" cy="41.5" rx="41" ry="41.5" transform="matrix(-1 0 0 1 112.001 527)" fill="#EAEEF0"/>
</g>
<g filter="url(#filter5_f_1_5182)">
<ellipse cx="23" cy="22.5" rx="23" ry="22.5" transform="matrix(-1 0 0 1 94.0009 263)" fill="#49B3F3"/>
</g>
<g opacity="0.64" filter="url(#filter6_f_1_5182)">
<ellipse cx="23" cy="22.5" rx="23" ry="22.5" transform="matrix(-1 0 0 1 94.0009 195)" fill="#E12A80"/>
</g>
</g>
<defs>
<filter id="filter0_f_1_5182" x="-80.9971" y="-47" width="304" height="304" filterUnits="userSpaceOnUse" color-interpolation-filters="sRGB">
<feFlood flood-opacity="0" result="BackgroundImageFix"/>
<feBlend mode="normal" in="SourceGraphic" in2="BackgroundImageFix" result="shape"/>
<feGaussianBlur stdDeviation="60" result="effect1_foregroundBlur_1_5182"/>
</filter>
<filter id="filter1_f_1_5182" x="-80.9971" y="115" width="304" height="304" filterUnits="userSpaceOnUse" color-interpolation-filters="sRGB">
<feFlood flood-opacity="0" result="BackgroundImageFix"/>
<feBlend mode="normal" in="SourceGraphic" in2="BackgroundImageFix" result="shape"/>
<feGaussianBlur stdDeviation="60" result="effect1_foregroundBlur_1_5182"/>
</filter>
<filter id="filter2_f_1_5182" x="-49.9991" y="51" width="242" height="242" filterUnits="userSpaceOnUse" color-interpolation-filters="sRGB">
<feFlood flood-opacity="0" result="BackgroundImageFix"/>
<feBlend mode="normal" in="SourceGraphic" in2="BackgroundImageFix" result="shape"/>
<feGaussianBlur stdDeviation="40" result="effect1_foregroundBlur_1_5182"/>
</filter>
<filter id="filter3_f_1_5182" x="-89.9991" y="198" width="322" height="323" filterUnits="userSpaceOnUse" color-interpolation-filters="sRGB">
<feFlood flood-opacity="0" result="BackgroundImageFix"/>
<feBlend mode="normal" in="SourceGraphic" in2="BackgroundImageFix" result="shape"/>
<feGaussianBlur stdDeviation="60" result="effect1_foregroundBlur_1_5182"/>
</filter>
<filter id="filter4_f_1_5182" x="-89.9991" y="407" width="322" height="323" filterUnits="userSpaceOnUse" color-interpolation-filters="sRGB">
<feFlood flood-opacity="0" result="BackgroundImageFix"/>
<feBlend mode="normal" in="SourceGraphic" in2="BackgroundImageFix" result="shape"/>
<feGaussianBlur stdDeviation="60" result="effect1_foregroundBlur_1_5182"/>
</filter>
<filter id="filter5_f_1_5182" x="-15.9991" y="199" width="174" height="173" filterUnits="userSpaceOnUse" color-interpolation-filters="sRGB">
<feFlood flood-opacity="0" result="BackgroundImageFix"/>
<feBlend mode="normal" in="SourceGraphic" in2="BackgroundImageFix" result="shape"/>
<feGaussianBlur stdDeviation="32" result="effect1_foregroundBlur_1_5182"/>
</filter>
<filter id="filter6_f_1_5182" x="-31.9991" y="115" width="206" height="205" filterUnits="userSpaceOnUse" color-interpolation-filters="sRGB">
<feFlood flood-opacity="0" result="BackgroundImageFix"/>
<feBlend mode="normal" in="SourceGraphic" in2="BackgroundImageFix" result="shape"/>
<feGaussianBlur stdDeviation="40" result="effect1_foregroundBlur_1_5182"/>
</filter>
</defs>
</svg>
