<svg width="32" height="32" viewBox="0 0 32 32" fill="none" xmlns="http://www.w3.org/2000/svg">
<path d="M15.8632 20.3057H15.8624C13.4162 20.3057 11.4331 22.2888 11.4331 24.735V24.7358C11.4331 27.1821 13.4162 29.1651 15.8624 29.1651H15.8632C18.3095 29.1651 20.2926 27.1821 20.2926 24.7358V24.735C20.2926 22.2888 18.3095 20.3057 15.8632 20.3057Z" fill="#1004A4"/>
<path d="M6.27374 8.67289C8.1887 6.75793 11.2935 6.75793 13.2076 8.67289L14.3868 9.85209L15.8624 11.3269L17.4614 9.72796L18.5172 8.67208C20.4322 6.75712 23.537 6.75712 25.4511 8.67208L21.0879 4.30891L19.565 2.78592C17.5202 0.741119 14.2047 0.741119 12.1599 2.78592L6.26721 8.67861" fill="#1004A4"/>
<path d="M29.2443 12.4661L28.916 12.1378L26.6948 9.91662L25.4511 8.67292C23.5362 6.75795 20.4314 6.75795 18.5172 8.67292L17.4614 9.7288L15.8624 11.3277L23.1229 18.5882C24.8133 20.2786 27.5539 20.2786 29.2443 18.5882C30.9347 16.8979 30.9347 14.1573 29.2443 12.4669V12.4661Z" fill="#E12A80"/>
<path d="M14.3875 9.85293L13.2083 8.67374C11.2934 6.75878 8.18861 6.75878 6.27447 8.67374L5.15325 9.79495L2.48129 12.4669C0.790903 14.1573 0.790903 16.8979 2.48129 18.5883C4.17169 20.2786 6.91224 20.2786 8.60264 18.5883L8.93091 18.26L15.8632 11.3286L14.3875 9.85375V9.85293Z" fill="#49B3F3"/>
</svg>
