<svg width="453" height="442" viewBox="0 0 453 442" fill="none" xmlns="http://www.w3.org/2000/svg">
<path d="M319.177 70.025C277.763 28.6105 210.628 28.6105 169.213 70.025L94.2312 145.007L19.2491 70.025C-22.1654 28.6105 -89.3004 28.6105 -130.715 70.025L19.2491 -79.9391C60.6637 -121.354 127.799 -121.354 169.213 -79.9391L319.177 70.025Z" stroke="#EAEEF0" stroke-width="2"/>
<path d="M19.2638 70.0304L94.2454 145.012L-39.0552 278.313C-80.4367 319.694 -147.637 319.694 -189.018 278.313C-230.4 236.931 -230.4 169.731 -189.018 128.349L-130.699 70.0304C-89.3179 28.6489 -22.1177 28.6489 19.2638 70.0304Z" stroke="#EAEEF0" stroke-width="2"/>
<path d="M377.498 278.31C336.116 319.691 268.916 319.691 227.535 278.31L94.2341 145.009L169.216 70.0275C210.597 28.646 277.797 28.646 319.179 70.0275L377.498 128.347C418.879 169.728 418.879 236.928 377.498 278.31Z" stroke="#EAEEF0" stroke-width="2"/>
<path d="M93.6421 525.113C152.206 525.113 199.682 477.637 199.682 419.073C199.682 360.509 152.206 313.033 93.6421 313.033C35.0778 313.033 -12.3979 360.509 -12.3979 419.073C-12.3979 477.637 35.0778 525.113 93.6421 525.113Z" stroke="#EAEEF0" stroke-width="2"/>
</svg>
