<svg width="360" height="142" viewBox="0 0 360 142" fill="none" xmlns="http://www.w3.org/2000/svg">
<mask id="mask0_1_5296" style="mask-type:alpha" maskUnits="userSpaceOnUse" x="-194" y="0" width="714" height="142">
<path opacity="0.32" fill-rule="evenodd" clip-rule="evenodd" d="M410.755 27.3076L418.227 34.7794L437.439 53.9918C443.678 60.2304 453.829 60.2304 460.068 53.9918L479.28 34.7794L486.75 27.3076C492.989 21.069 492.989 10.9179 486.75 4.67932C483.632 1.56078 479.534 0 475.437 0C471.34 0 467.242 1.56078 464.124 4.67932L448.753 20.0501L433.383 4.67932C427.145 -1.55927 416.994 -1.55927 410.755 4.67932C404.517 10.9179 404.517 21.069 410.755 27.3076ZM467.538 8.09523C471.894 3.74044 478.98 3.74044 483.336 8.09523C487.691 12.45 487.691 19.5369 483.336 23.8917L475.864 31.3635C473.754 33.4738 470.949 34.6345 467.965 34.6345C464.981 34.6345 462.176 33.4738 460.068 31.3635L452.169 23.4645L467.538 8.09523ZM456.652 34.7794C459.627 37.7546 463.567 39.412 467.764 39.4618L456.652 50.5759C452.297 54.9307 445.21 54.9307 440.855 50.5759L429.741 39.4618C433.94 39.412 437.88 37.7546 440.855 34.7794L448.753 26.8804L456.652 34.7794ZM414.171 8.09523C418.526 3.74044 425.613 3.74044 429.968 8.09523L445.338 23.4645L437.439 31.3635C435.329 33.4738 432.525 34.6345 429.54 34.6345C426.556 34.6345 423.752 33.4738 421.643 31.3635L414.171 23.8917C409.816 19.5369 409.816 12.45 414.171 8.09523ZM267.753 27.3076L275.225 34.7795L294.437 53.9919C300.676 60.2305 310.827 60.2305 317.066 53.9919L336.278 34.7795L343.748 27.3076C349.987 21.069 349.987 10.9179 343.748 4.67934C340.63 1.56079 336.532 1.41877e-05 332.435 1.41877e-05C328.338 1.41877e-05 324.24 1.56079 321.122 4.67934L305.751 20.0502L290.382 4.67934C284.143 -1.55926 273.992 -1.55926 267.753 4.67934C261.515 10.9179 261.515 21.069 267.753 27.3076ZM324.536 8.09524C328.892 3.74045 335.978 3.74045 340.334 8.09524C344.689 12.45 344.689 19.5369 340.334 23.8917L332.862 31.3636C330.752 33.4738 327.947 34.6345 324.963 34.6345C321.979 34.6345 319.174 33.4738 317.066 31.3636L309.167 23.4645L324.536 8.09524ZM313.65 34.7795C316.625 37.7546 320.565 39.412 324.762 39.4618L313.65 50.576C309.295 54.9307 302.208 54.9307 297.853 50.576L286.739 39.4618C290.939 39.412 294.878 37.7546 297.853 34.7795L305.751 26.8805L313.65 34.7795ZM271.169 8.09524C275.524 3.74045 282.611 3.74045 286.966 8.09524L302.336 23.4645L294.437 31.3636C292.327 33.4738 289.523 34.6345 286.538 34.6345C283.554 34.6345 280.75 33.4738 278.641 31.3636L271.169 23.8917C266.814 19.5369 266.814 12.45 271.169 8.09524ZM125.241 27.3076L132.713 34.7795L151.926 53.9919C158.164 60.2305 168.315 60.2305 174.554 53.9919L193.766 34.7795L201.237 27.3076C207.475 21.0691 207.475 10.9179 201.237 4.67934C198.118 1.5608 194.02 2.04171e-05 189.923 2.04171e-05C185.827 2.04171e-05 181.728 1.5608 178.61 4.67934L163.239 20.0502L147.87 4.67934C141.631 -1.55925 131.48 -1.55925 125.241 4.67934C119.003 10.9179 119.003 21.0691 125.241 27.3076ZM197.822 8.09525C202.177 12.45 202.177 19.537 197.822 23.8917L190.35 31.3636C188.24 33.4738 185.436 34.6346 182.451 34.6346C179.467 34.6346 176.663 33.4738 174.554 31.3636L166.655 23.4646L182.024 8.09525C186.381 3.74046 193.466 3.74046 197.822 8.09525ZM171.138 34.7795C174.113 37.7546 178.053 39.412 182.251 39.4618L171.138 50.576C166.783 54.9308 159.696 54.9308 155.342 50.576L144.227 39.4618C148.427 39.412 152.366 37.7546 155.342 34.7795L163.239 26.8805L171.138 34.7795ZM128.657 8.09525C133.012 3.74046 140.099 3.74046 144.454 8.09525L159.825 23.4646L151.926 31.3636C149.815 33.4738 147.011 34.6346 144.027 34.6346C141.042 34.6346 138.238 33.4738 136.129 31.3636L128.657 23.8917C124.303 19.537 124.303 12.45 128.657 8.09525ZM127.272 101.273L119.8 108.744C113.561 114.983 103.41 114.983 97.1715 108.744C90.9329 102.506 90.9329 92.3547 97.1715 86.1161L112.542 70.7468L97.1715 55.376C94.053 52.2575 92.4922 48.1593 92.4922 44.0626C92.4922 39.966 94.053 35.8678 97.1715 32.7492C103.41 26.5106 113.561 26.5106 119.8 32.7492L127.272 40.2195L146.484 59.4319C152.723 65.6705 152.723 75.8216 146.484 82.0602L127.272 101.273ZM100.587 36.1636C96.2326 40.5199 96.2326 47.6053 100.587 51.9616L115.957 67.3309L123.856 59.4319C125.966 57.3232 127.127 54.5187 127.127 51.5345C127.127 48.5503 125.966 45.7457 123.856 43.6354L116.384 36.1636C112.029 31.8088 104.942 31.8088 100.587 36.1636ZM131.954 51.7352C131.904 55.933 130.247 59.8727 127.272 62.8478L119.373 70.7468L127.272 78.6443C130.247 81.6195 131.904 85.5592 131.954 89.7585L143.068 78.6443C147.423 74.2895 147.423 67.2026 143.068 62.8478L131.954 51.7352ZM100.587 89.5321C96.2326 93.8868 96.2326 100.974 100.587 105.329C104.942 109.683 112.029 109.683 116.384 105.329L123.856 97.8567C125.966 95.748 127.127 92.9434 127.127 89.9592C127.127 86.975 125.966 84.1705 123.856 82.0602L115.957 74.1612L100.587 89.5321ZM199.206 40.2211L206.678 32.7493C212.916 26.5107 223.067 26.5107 229.306 32.7493C235.544 38.9879 235.544 49.139 229.306 55.3776L213.935 70.7469L229.306 86.1177C232.424 89.2362 233.985 93.3344 233.985 97.4311C233.985 101.528 232.424 105.626 229.306 108.744C223.067 114.983 212.916 114.983 206.678 108.744L199.206 101.274L179.993 82.0618C173.755 75.8232 173.755 65.6721 179.993 59.4335L199.206 40.2211ZM210.094 105.33C214.448 109.685 221.535 109.685 225.89 105.33C230.245 100.974 230.245 93.8884 225.89 89.5321L210.521 74.1628L202.622 82.0618C200.511 84.1705 199.351 86.9751 199.351 89.9593C199.351 92.9435 200.511 95.7481 202.622 97.8583L210.094 105.33ZM194.523 89.7585C194.573 85.5607 196.231 81.621 199.206 78.6459L207.105 70.7469L199.206 62.8494C196.231 59.8742 194.573 55.9346 194.523 51.7352L183.409 62.8494C179.055 67.2042 179.055 74.2911 183.409 78.6459L194.523 89.7585ZM225.89 51.9617C230.245 47.6069 230.245 40.52 225.89 36.1652C221.535 31.8104 214.448 31.8104 210.094 36.1652L202.622 43.637C200.511 45.7457 199.351 48.5503 199.351 51.5345C199.351 54.5187 200.511 57.3233 202.622 59.4335L210.521 67.3325L225.89 51.9617ZM193.765 106.715L201.237 114.186C207.475 120.425 207.475 130.576 201.237 136.815C194.998 143.053 184.847 143.053 178.608 136.815L163.239 121.444L147.868 136.815C144.75 139.933 140.652 141.494 136.555 141.494C132.458 141.494 128.36 139.933 125.241 136.815C119.003 130.576 119.003 120.425 125.241 114.186L132.712 106.715L151.924 87.5022C158.163 81.2636 168.314 81.2636 174.552 87.5022L193.765 106.715ZM128.656 133.399C133.012 137.754 140.098 137.754 144.454 133.399L159.823 118.029L151.924 110.13C149.815 108.02 147.009 106.859 144.027 106.859C141.042 106.859 138.238 108.02 136.128 110.13L128.656 117.602C124.301 121.957 124.301 129.044 128.656 133.399ZM144.227 102.032C148.425 102.082 152.365 103.739 155.34 106.715L163.239 114.614L171.137 106.715C174.112 103.739 178.051 102.082 182.251 102.032L171.137 90.9181C166.782 86.5633 159.695 86.5633 155.34 90.9181L144.227 102.032ZM182.024 133.399C186.379 137.754 193.466 137.754 197.821 133.399C202.176 129.044 202.176 121.957 197.821 117.602L190.349 110.13C188.24 108.02 185.436 106.859 182.451 106.859C179.467 106.859 176.663 108.02 174.552 110.13L166.653 118.029L182.024 133.399ZM-23.6924 108.744L-16.2206 101.273L2.99184 82.0602C9.23042 75.8216 9.23042 65.6705 2.99184 59.4319L-16.2206 40.2195L-23.6924 32.7492C-29.931 26.5106 -40.0821 26.5106 -46.3207 32.7492C-49.4392 35.8678 -51 39.966 -51 44.0626C-51 48.1593 -49.4392 52.2575 -46.3207 55.376L-30.9499 70.7468L-46.3207 86.1162C-52.5593 92.3547 -52.5593 102.506 -46.3207 108.744C-40.0821 114.983 -29.931 114.983 -23.6924 108.744ZM-42.9048 51.9616C-47.2596 47.6053 -47.2596 40.5199 -42.9048 36.1636C-38.55 31.8088 -31.4631 31.8088 -27.1083 36.1636L-19.6365 43.6354C-17.5262 45.7457 -16.3655 48.5503 -16.3655 51.5345C-16.3655 54.5187 -17.5262 57.3232 -19.6365 59.4319L-27.5355 67.3309L-42.9048 51.9616ZM-16.2206 62.8478C-13.2454 59.8727 -11.588 55.933 -11.5382 51.7352L-0.424072 62.8478C3.93071 67.2026 3.93071 74.2895 -0.424072 78.6443L-11.5382 89.7585C-11.588 85.5592 -13.2454 81.6195 -16.2206 78.6443L-24.1196 70.7468L-16.2206 62.8478ZM-42.9048 105.329C-47.2596 100.974 -47.2596 93.8868 -42.9048 89.5321L-27.5355 74.1612L-19.6365 82.0602C-17.5262 84.1705 -16.3655 86.975 -16.3655 89.9592C-16.3655 92.9434 -17.5262 95.748 -19.6365 97.8567L-27.1083 105.329C-31.4631 109.683 -38.55 109.683 -42.9048 105.329ZM55.7136 40.2211L63.1854 32.7493C69.424 26.5107 79.5751 26.5107 85.8137 32.7493C92.0523 38.9879 92.0523 49.139 85.8137 55.3776L70.4429 70.7469L85.8137 86.1177C88.9323 89.2363 90.493 93.3344 90.493 97.4311C90.493 101.528 88.9323 105.626 85.8137 108.744C79.5751 114.983 69.424 114.983 63.1854 108.744L55.7136 101.274L36.5012 82.0618C30.2626 75.8232 30.2626 65.6721 36.5012 59.4335L55.7136 40.2211ZM82.3978 105.33C86.7526 100.974 86.7526 93.8884 82.3978 89.5321L67.0285 74.1628L59.1295 82.0618C57.0193 84.1705 55.8585 86.9751 55.8585 89.9593C55.8585 92.9435 57.0193 95.7481 59.1295 97.8583L66.6013 105.33C70.9561 109.685 78.043 109.685 82.3978 105.33ZM51.0313 89.7585C51.0811 85.5607 52.7384 81.621 55.7136 78.6459L63.6126 70.7469L55.7136 62.8494C52.7384 59.8743 51.0811 55.9346 51.0313 51.7353L39.9171 62.8494C35.5623 67.2042 35.5623 74.2911 39.9171 78.6459L51.0313 89.7585ZM82.3978 51.9617C86.7526 47.6069 86.7526 40.52 82.3978 36.1652C78.043 31.8104 70.9561 31.8104 66.6013 36.1652L59.1295 43.637C57.0193 45.7457 55.8585 48.5503 55.8585 51.5345C55.8585 54.5187 57.0193 57.3233 59.1295 59.4335L67.0285 67.3325L82.3978 51.9617ZM-18.2508 27.3077L-10.779 34.7795L8.43341 53.9919C14.672 60.2305 24.8231 60.2305 31.0617 53.9919L50.2741 34.7795L57.7444 27.3077C63.983 21.0691 63.983 10.9179 57.7444 4.67935C54.6259 1.56081 50.5277 2.62302e-05 46.431 2.62302e-05C42.3344 2.62302e-05 38.2362 1.56081 35.1176 4.67935L19.7468 20.0502L4.3775 4.67935C-1.8611 -1.55924 -12.0122 -1.55924 -18.2508 4.67935C-24.4894 10.9179 -24.4894 21.0691 -18.2508 27.3077ZM38.532 8.09526C42.8883 3.74047 49.9737 3.74047 54.33 8.09526C58.6848 12.45 58.6848 19.537 54.33 23.8917L46.8582 31.3636C44.748 33.4738 41.9434 34.6346 38.9592 34.6346C35.975 34.6346 33.1704 33.4738 31.0617 31.3636L23.1627 23.4646L38.532 8.09526ZM27.6458 34.7795C30.621 37.7546 34.5607 39.412 38.7585 39.4618L27.6458 50.576C23.291 54.9308 16.2041 54.9308 11.8493 50.576L0.735184 39.4618C4.93449 39.412 8.87418 37.7546 11.8493 34.7795L19.7468 26.8805L27.6458 34.7795ZM-14.8349 8.09526C-10.4801 3.74047 -3.39319 3.74047 0.961594 8.09526L16.3324 23.4646L8.43341 31.3636C6.3232 33.4738 3.51862 34.6346 0.534424 34.6346C-2.44978 34.6346 -5.25435 33.4738 -7.36307 31.3636L-14.8349 23.8917C-19.1897 19.537 -19.1897 12.45 -14.8349 8.09526ZM50.2726 106.715L57.7445 114.186C63.9831 120.425 63.9831 130.576 57.7445 136.815C51.5059 143.053 41.3548 143.053 35.1162 136.815L19.7469 121.444L4.37604 136.815C1.25751 139.933 -2.84068 141.494 -6.93735 141.494C-11.034 141.494 -15.1322 139.933 -18.2507 136.815C-24.4893 130.576 -24.4893 120.425 -18.2507 114.186L-10.7804 106.715L8.43196 87.5022C14.6706 81.2636 24.8217 81.2636 31.0603 87.5022L50.2726 106.715ZM-14.8363 133.399C-10.48 137.754 -3.39465 137.754 0.961655 133.399L16.331 118.029L8.43196 110.13C6.32324 108.02 3.51717 106.86 0.53447 106.86C-2.44972 106.86 -5.2543 108.02 -7.36453 110.13L-14.8363 117.602C-19.1911 121.957 -19.1911 129.044 -14.8363 133.399ZM0.735229 102.032C4.93303 102.082 8.87273 103.739 11.8479 106.715L19.7469 114.614L27.6444 106.715C30.6195 103.739 34.5592 102.082 38.7585 102.032L27.6444 90.9181C23.2896 86.5633 16.2027 86.5633 11.8479 90.9181L0.735229 102.032ZM38.5321 133.399C42.8869 137.754 49.9738 137.754 54.3286 133.399C58.6833 129.044 58.6833 121.957 54.3286 117.602L46.8568 110.13C44.748 108.02 41.9435 106.86 38.9593 106.86C35.9751 106.86 33.1705 108.02 31.0603 110.13L23.1613 118.029L38.5321 133.399ZM-166.692 108.744L-159.221 101.273L-140.008 82.0602C-133.77 75.8216 -133.77 65.6705 -140.008 59.4319L-159.221 40.2195L-166.692 32.7492C-172.931 26.5106 -183.082 26.5106 -189.321 32.7492C-192.439 35.8678 -194 39.966 -194 44.0626C-194 48.1593 -192.439 52.2575 -189.321 55.376L-173.95 70.7469L-189.321 86.1162C-195.559 92.3548 -195.559 102.506 -189.321 108.744C-183.082 114.983 -172.931 114.983 -166.692 108.744ZM-185.905 51.9616C-190.26 47.6053 -190.26 40.5199 -185.905 36.1636C-181.55 31.8088 -174.463 31.8088 -170.108 36.1636L-162.636 43.6355C-160.526 45.7457 -159.365 48.5503 -159.365 51.5345C-159.365 54.5187 -160.526 57.3232 -162.636 59.4319L-170.535 67.331L-185.905 51.9616ZM-159.221 62.8479C-156.245 59.8727 -154.588 55.933 -154.538 51.7352L-143.424 62.8479C-139.069 67.2026 -139.069 74.2896 -143.424 78.6443L-154.538 89.7585C-154.588 85.5592 -156.245 81.6195 -159.221 78.6443L-167.12 70.7469L-159.221 62.8479ZM-185.905 105.329C-190.26 100.974 -190.26 93.8869 -185.905 89.5321L-170.535 74.1613L-162.636 82.0602C-160.526 84.1705 -159.365 86.975 -159.365 89.9592C-159.365 92.9434 -160.526 95.748 -162.636 97.8567L-170.108 105.329C-174.463 109.683 -181.55 109.683 -185.905 105.329ZM-87.2864 40.2211L-79.8146 32.7493C-73.576 26.5107 -63.4249 26.5107 -57.1863 32.7493C-50.9477 38.9879 -50.9477 49.139 -57.1863 55.3776L-72.5571 70.7469L-57.1863 86.1177C-54.0677 89.2363 -52.507 93.3344 -52.507 97.4311C-52.507 101.528 -54.0677 105.626 -57.1863 108.745C-63.4249 114.983 -73.576 114.983 -79.8146 108.745L-87.2864 101.274L-106.499 82.0618C-112.737 75.8232 -112.737 65.6721 -106.499 59.4335L-87.2864 40.2211ZM-60.6022 105.33C-56.2474 100.974 -56.2474 93.8884 -60.6022 89.5321L-75.9715 74.1628L-83.8705 82.0618C-85.9807 84.1705 -87.1415 86.9751 -87.1415 89.9593C-87.1415 92.9435 -85.9807 95.7481 -83.8705 97.8583L-76.3987 105.33C-72.0439 109.685 -64.957 109.685 -60.6022 105.33ZM-91.9687 89.7585C-91.9189 85.5607 -90.2615 81.621 -87.2864 78.6459L-79.3874 70.7469L-87.2864 62.8494C-90.2615 59.8743 -91.9189 55.9346 -91.9687 51.7353L-103.083 62.8494C-107.438 67.2042 -107.438 74.2911 -103.083 78.6459L-91.9687 89.7585ZM-60.6022 51.9617C-56.2474 47.6069 -56.2474 40.52 -60.6022 36.1652C-64.957 31.8104 -72.0439 31.8104 -76.3987 36.1652L-83.8705 43.637C-85.9807 45.7457 -87.1415 48.5503 -87.1415 51.5345C-87.1415 54.5187 -85.9807 57.3233 -83.8705 59.4335L-75.9715 67.3325L-60.6022 51.9617ZM-161.251 27.3077L-153.779 34.7795L-134.567 53.9919C-128.328 60.2305 -118.177 60.2305 -111.938 53.9919L-92.7259 34.7795L-85.2556 27.3077C-79.017 21.0691 -79.017 10.918 -85.2556 4.67936C-88.3741 1.56081 -92.4723 3.29401e-05 -96.569 3.29401e-05C-100.666 3.29401e-05 -104.764 1.56081 -107.882 4.67936L-123.253 20.0502L-138.622 4.67936C-144.861 -1.55924 -155.012 -1.55924 -161.251 4.67936C-167.489 10.918 -167.489 21.0691 -161.251 27.3077ZM-104.468 8.09526C-100.112 3.74047 -93.0263 3.74047 -88.67 8.09526C-84.3152 12.4501 -84.3152 19.537 -88.67 23.8918L-96.1418 31.3636C-98.252 33.4738 -101.057 34.6346 -104.041 34.6346C-107.025 34.6346 -109.83 33.4738 -111.938 31.3636L-119.837 23.4646L-104.468 8.09526ZM-115.354 34.7795C-112.379 37.7546 -108.439 39.412 -104.242 39.4618L-115.354 50.576C-119.709 54.9308 -126.796 54.9308 -131.151 50.576L-142.265 39.4618C-138.066 39.412 -134.126 37.7546 -131.151 34.7795L-123.253 26.8805L-115.354 34.7795ZM-157.835 8.09526C-153.48 3.74047 -146.393 3.74047 -142.038 8.09526L-126.668 23.4646L-134.567 31.3636C-136.677 33.4738 -139.481 34.6346 -142.466 34.6346C-145.45 34.6346 -148.254 33.4738 -150.363 31.3636L-157.835 23.8918C-162.19 19.537 -162.19 12.4501 -157.835 8.09526ZM-92.7273 106.715L-85.2555 114.186C-79.0169 120.425 -79.0169 130.576 -85.2555 136.815C-91.4941 143.053 -101.645 143.053 -107.884 136.815L-123.253 121.444L-138.624 136.815C-141.743 139.933 -145.841 141.494 -149.937 141.494C-154.034 141.494 -158.132 139.933 -161.251 136.815C-167.489 130.576 -167.489 120.425 -161.251 114.186L-153.78 106.715L-134.568 87.5022C-128.329 81.2636 -118.178 81.2636 -111.94 87.5022L-92.7273 106.715ZM-157.836 133.399C-153.48 137.754 -146.395 137.754 -142.038 133.399L-126.669 118.03L-134.568 110.13C-136.677 108.02 -139.483 106.86 -142.466 106.86C-145.45 106.86 -148.254 108.02 -150.365 110.13L-157.836 117.602C-162.191 121.957 -162.191 129.044 -157.836 133.399ZM-142.265 102.032C-138.067 102.082 -134.127 103.739 -131.152 106.715L-123.253 114.614L-115.356 106.715C-112.381 103.739 -108.441 102.082 -104.241 102.032L-115.356 90.9181C-119.71 86.5633 -126.797 86.5633 -131.152 90.9181L-142.265 102.032ZM-104.468 133.399C-100.113 137.754 -93.0262 137.754 -88.6714 133.399C-84.3166 129.044 -84.3166 121.957 -88.6714 117.602L-96.1433 110.13C-98.252 108.02 -101.057 106.86 -104.041 106.86C-107.025 106.86 -109.83 108.02 -111.94 110.13L-119.839 118.03L-104.468 133.399ZM262.312 108.744L269.783 101.273L288.996 82.0602C295.234 75.8216 295.234 65.6705 288.996 59.4319L269.783 40.2195L262.312 32.7492C256.073 26.5106 245.922 26.5106 239.683 32.7492C236.565 35.8678 235.004 39.966 235.004 44.0626C235.004 48.1593 236.565 52.2575 239.683 55.376L255.054 70.7468L239.683 86.1161C233.445 92.3547 233.445 102.506 239.683 108.744C245.922 114.983 256.073 114.983 262.312 108.744ZM243.099 51.9616C238.744 47.6053 238.744 40.5199 243.099 36.1636C247.454 31.8088 254.541 31.8088 258.896 36.1636L266.368 43.6354C268.478 45.7457 269.639 48.5502 269.639 51.5344C269.639 54.5186 268.478 57.3232 266.368 59.4319L258.469 67.3309L243.099 51.9616ZM269.783 62.8478C272.759 59.8727 274.416 55.933 274.466 51.7352L285.58 62.8478C289.935 67.2026 289.935 74.2895 285.58 78.6443L274.466 89.7585C274.416 85.5592 272.759 81.6195 269.783 78.6443L261.884 70.7468L269.783 62.8478ZM243.099 105.329C238.744 100.974 238.744 93.8868 243.099 89.5321L258.469 74.1612L266.368 82.0602C268.478 84.1704 269.639 86.975 269.639 89.9592C269.639 92.9434 268.478 95.748 266.368 97.8567L258.896 105.329C254.541 109.683 247.454 109.683 243.099 105.329ZM341.718 40.2211L349.189 32.7493C355.428 26.5107 365.579 26.5107 371.818 32.7493C378.056 38.9879 378.056 49.139 371.818 55.3776L356.447 70.7469L371.818 86.1177C374.936 89.2362 376.497 93.3344 376.497 97.4311C376.497 101.528 374.936 105.626 371.818 108.744C365.579 114.983 355.428 114.983 349.189 108.744L341.718 101.274L322.505 82.0618C316.267 75.8232 316.267 65.6721 322.505 59.4335L341.718 40.2211ZM352.605 105.33C356.96 109.685 364.047 109.685 368.402 105.33C372.757 100.974 372.757 93.8884 368.402 89.5321L353.032 74.1628L345.133 82.0618C343.023 84.1705 341.862 86.9751 341.862 89.9593C341.862 92.9435 343.023 95.748 345.133 97.8583L352.605 105.33ZM337.035 89.7585C337.085 85.5607 338.742 81.621 341.718 78.6459L349.617 70.7469L341.718 62.8494C338.742 59.8742 337.085 55.9346 337.035 51.7352L325.921 62.8494C321.566 67.2042 321.566 74.2911 325.921 78.6459L337.035 89.7585ZM368.402 51.9617C372.757 47.6069 372.757 40.52 368.402 36.1652C364.047 31.8104 356.96 31.8104 352.605 36.1652L345.133 43.637C343.023 45.7457 341.862 48.5503 341.862 51.5345C341.862 54.5187 343.023 57.3233 345.133 59.4335L353.032 67.3325L368.402 51.9617ZM336.277 106.715L343.748 114.186C349.987 120.425 349.987 130.576 343.748 136.815C337.51 143.053 327.359 143.053 321.12 136.815L305.751 121.444L290.38 136.815C287.261 139.933 283.163 141.494 279.067 141.494C274.97 141.494 270.872 139.933 267.753 136.815C261.515 130.576 261.515 120.425 267.753 114.186L275.223 106.715L294.436 87.5022C300.674 81.2636 310.826 81.2636 317.064 87.5022L336.277 106.715ZM271.168 133.399C275.524 137.754 282.609 137.754 286.966 133.399L302.335 118.029L294.436 110.13C292.327 108.02 289.521 106.859 286.538 106.859C283.554 106.859 280.75 108.02 278.639 110.13L271.168 117.602C266.813 121.957 266.813 129.044 271.168 133.399ZM286.739 102.032C290.937 102.082 294.877 103.739 297.852 106.715L305.751 114.614L313.648 106.715C316.623 103.739 320.563 102.082 324.762 102.032L313.648 90.9181C309.293 86.5633 302.207 86.5633 297.852 90.9181L286.739 102.032ZM324.536 133.399C328.891 137.754 335.978 137.754 340.332 133.399C344.687 129.044 344.687 121.957 340.332 117.602L332.861 110.13C330.752 108.02 327.947 106.859 324.963 106.859C321.979 106.859 319.174 108.02 317.064 110.13L309.165 118.029L324.536 133.399ZM405.315 108.744L412.787 101.273L432 82.0602C438.238 75.8216 438.238 65.6705 432 59.4319L412.787 40.2195L405.315 32.7492C399.077 26.5106 388.926 26.5106 382.687 32.7492C379.569 35.8678 378.008 39.9659 378.008 44.0626C378.008 48.1593 379.569 52.2575 382.687 55.376L398.058 70.7468L382.687 86.1161C376.449 92.3547 376.449 102.506 382.687 108.744C388.926 114.983 399.077 114.983 405.315 108.744ZM386.103 51.9616C381.748 47.6053 381.748 40.5199 386.103 36.1636C390.458 31.8088 397.545 31.8088 401.9 36.1636L409.371 43.6354C411.482 45.7457 412.642 48.5502 412.642 51.5344C412.642 54.5186 411.482 57.3232 409.371 59.4319L401.472 67.3309L386.103 51.9616ZM412.787 62.8478C415.762 59.8727 417.42 55.933 417.47 51.7352L428.584 62.8478C432.939 67.2026 432.939 74.2895 428.584 78.6443L417.47 89.7585C417.42 85.5591 415.762 81.6195 412.787 78.6443L404.888 70.7468L412.787 62.8478ZM386.103 105.329C381.748 100.974 381.748 93.8868 386.103 89.532L401.472 74.1612L409.371 82.0602C411.482 84.1704 412.642 86.975 412.642 89.9592C412.642 92.9434 411.482 95.748 409.371 97.8567L401.9 105.329C397.545 109.683 390.458 109.683 386.103 105.329ZM484.721 40.2211L492.193 32.7493C498.432 26.5107 508.583 26.5107 514.822 32.7493C521.06 38.9879 521.06 49.139 514.822 55.3776L499.451 70.7469L514.822 86.1177C517.94 89.2362 519.501 93.3344 519.501 97.4311C519.501 101.528 517.94 105.626 514.822 108.744C508.583 114.983 498.432 114.983 492.193 108.744L484.721 101.274L465.509 82.0618C459.27 75.8232 459.27 65.6721 465.509 59.4335L484.721 40.2211ZM495.609 105.33C499.964 109.685 507.051 109.685 511.406 105.33C515.76 100.974 515.76 93.8884 511.406 89.5321L496.036 74.1628L488.137 82.0618C486.027 84.1705 484.866 86.9751 484.866 89.9593C484.866 92.9435 486.027 95.748 488.137 97.8583L495.609 105.33ZM480.039 89.7585C480.089 85.5607 481.746 81.621 484.721 78.6459L492.62 70.7469L484.721 62.8494C481.746 59.8742 480.089 55.9345 480.039 51.7352L468.925 62.8494C464.57 67.2042 464.57 74.2911 468.925 78.6459L480.039 89.7585ZM511.406 51.9617C515.76 47.6069 515.76 40.52 511.406 36.1652C507.051 31.8104 499.964 31.8104 495.609 36.1652L488.137 43.637C486.027 45.7457 484.866 48.5503 484.866 51.5345C484.866 54.5187 486.027 57.3232 488.137 59.4335L496.036 67.3325L511.406 51.9617ZM479.279 106.715L486.75 114.186C492.989 120.425 492.989 130.576 486.75 136.815C480.512 143.053 470.361 143.053 464.122 136.815L448.753 121.444L433.382 136.815C430.263 139.933 426.165 141.494 422.068 141.494C417.972 141.494 413.874 139.933 410.755 136.815C404.517 130.576 404.517 120.425 410.755 114.186L418.225 106.715L437.438 87.5022C443.676 81.2636 453.828 81.2636 460.066 87.5022L479.279 106.715ZM414.169 133.399C418.526 137.754 425.611 137.754 429.968 133.399L445.337 118.029L437.438 110.13C435.329 108.02 432.523 106.859 429.54 106.859C426.556 106.859 423.752 108.02 421.641 110.13L414.169 117.602C409.815 121.957 409.815 129.044 414.169 133.399ZM429.741 102.032C433.939 102.082 437.879 103.739 440.854 106.715L448.753 114.614L456.65 106.715C459.625 103.739 463.565 102.082 467.764 102.032L456.65 90.9181C452.295 86.5633 445.208 86.5633 440.854 90.9181L429.741 102.032ZM467.538 133.399C471.893 137.754 478.98 137.754 483.334 133.399C487.689 129.044 487.689 121.957 483.334 117.602L475.863 110.13C473.754 108.02 470.949 106.859 467.965 106.859C464.981 106.859 462.176 108.02 460.066 110.13L452.167 118.029L467.538 133.399Z" fill="#F9FAFB"/>
</mask>
<g mask="url(#mask0_1_5296)">
<g opacity="0.4" filter="url(#filter0_f_1_5296)">
<circle cx="32" cy="32" r="32" transform="matrix(4.37114e-08 1 1 -4.37114e-08 -121 38.4932)" fill="#49B3F3"/>
</g>
<g opacity="0.4" filter="url(#filter1_f_1_5296)">
<circle cx="32" cy="32" r="32" transform="matrix(4.37114e-08 1 1 -4.37114e-08 41 38.4932)" fill="#49B3F3"/>
</g>
<g filter="url(#filter2_f_1_5296)">
<circle cx="41" cy="41" r="41" transform="matrix(4.37114e-08 1 1 -4.37114e-08 -63 29.4932)" fill="#1004A4"/>
</g>
<g opacity="0.24" filter="url(#filter3_f_1_5296)">
<ellipse cx="41" cy="41.5" rx="41" ry="41.5" transform="matrix(4.37114e-08 1 1 -4.37114e-08 124 29.4932)" fill="#1004A4"/>
</g>
<g filter="url(#filter4_f_1_5296)">
<ellipse cx="41" cy="41.5" rx="41" ry="41.5" transform="matrix(4.37114e-08 1 1 -4.37114e-08 333 29.4932)" fill="#EAEEF0"/>
</g>
<g filter="url(#filter5_f_1_5296)">
<ellipse cx="23" cy="22.5" rx="23" ry="22.5" transform="matrix(4.37114e-08 1 1 -4.37114e-08 69 47.4932)" fill="#49B3F3"/>
</g>
<g opacity="0.64" filter="url(#filter6_f_1_5296)">
<ellipse cx="23" cy="22.5" rx="23" ry="22.5" transform="matrix(4.37114e-08 1 1 -4.37114e-08 1 47.4932)" fill="#E12A80"/>
</g>
</g>
<defs>
<filter id="filter0_f_1_5296" x="-241" y="-81.5068" width="304" height="304" filterUnits="userSpaceOnUse" color-interpolation-filters="sRGB">
<feFlood flood-opacity="0" result="BackgroundImageFix"/>
<feBlend mode="normal" in="SourceGraphic" in2="BackgroundImageFix" result="shape"/>
<feGaussianBlur stdDeviation="60" result="effect1_foregroundBlur_1_5296"/>
</filter>
<filter id="filter1_f_1_5296" x="-79" y="-81.5068" width="304" height="304" filterUnits="userSpaceOnUse" color-interpolation-filters="sRGB">
<feFlood flood-opacity="0" result="BackgroundImageFix"/>
<feBlend mode="normal" in="SourceGraphic" in2="BackgroundImageFix" result="shape"/>
<feGaussianBlur stdDeviation="60" result="effect1_foregroundBlur_1_5296"/>
</filter>
<filter id="filter2_f_1_5296" x="-143" y="-50.5068" width="242" height="242" filterUnits="userSpaceOnUse" color-interpolation-filters="sRGB">
<feFlood flood-opacity="0" result="BackgroundImageFix"/>
<feBlend mode="normal" in="SourceGraphic" in2="BackgroundImageFix" result="shape"/>
<feGaussianBlur stdDeviation="40" result="effect1_foregroundBlur_1_5296"/>
</filter>
<filter id="filter3_f_1_5296" x="4" y="-90.5068" width="323" height="322" filterUnits="userSpaceOnUse" color-interpolation-filters="sRGB">
<feFlood flood-opacity="0" result="BackgroundImageFix"/>
<feBlend mode="normal" in="SourceGraphic" in2="BackgroundImageFix" result="shape"/>
<feGaussianBlur stdDeviation="60" result="effect1_foregroundBlur_1_5296"/>
</filter>
<filter id="filter4_f_1_5296" x="213" y="-90.5068" width="323" height="322" filterUnits="userSpaceOnUse" color-interpolation-filters="sRGB">
<feFlood flood-opacity="0" result="BackgroundImageFix"/>
<feBlend mode="normal" in="SourceGraphic" in2="BackgroundImageFix" result="shape"/>
<feGaussianBlur stdDeviation="60" result="effect1_foregroundBlur_1_5296"/>
</filter>
<filter id="filter5_f_1_5296" x="5" y="-16.5068" width="173" height="174" filterUnits="userSpaceOnUse" color-interpolation-filters="sRGB">
<feFlood flood-opacity="0" result="BackgroundImageFix"/>
<feBlend mode="normal" in="SourceGraphic" in2="BackgroundImageFix" result="shape"/>
<feGaussianBlur stdDeviation="32" result="effect1_foregroundBlur_1_5296"/>
</filter>
<filter id="filter6_f_1_5296" x="-79" y="-32.5068" width="205" height="206" filterUnits="userSpaceOnUse" color-interpolation-filters="sRGB">
<feFlood flood-opacity="0" result="BackgroundImageFix"/>
<feBlend mode="normal" in="SourceGraphic" in2="BackgroundImageFix" result="shape"/>
<feGaussianBlur stdDeviation="40" result="effect1_foregroundBlur_1_5296"/>
</filter>
</defs>
</svg>
