<svg width="62" height="17" viewBox="0 0 62 17" fill="none" xmlns="http://www.w3.org/2000/svg">
<path d="M15.6353 16.476H0.638776C0.468497 16.4748 0.305582 16.4061 0.185845 16.285C0.0661072 16.164 -0.000725113 16.0005 5.93488e-06 15.8302V0.646719C-0.000725113 0.476437 0.0661072 0.312986 0.185845 0.19191C0.305582 0.0708345 0.468497 0.00213833 0.638776 0.000976562H15.6353C15.8055 0.00213833 15.9684 0.0708345 16.0882 0.19191C16.2079 0.312986 16.2748 0.476437 16.274 0.646719V15.8302C16.2748 16.0005 16.2079 16.164 16.0882 16.285C15.9684 16.4061 15.8055 16.4748 15.6353 16.476ZM11.5102 3.07522C11.4677 3.07558 11.4257 3.08438 11.3866 3.10097C11.3475 3.11756 11.312 3.14147 11.2823 3.17176C11.2525 3.20206 11.229 3.23857 11.2131 3.27796C11.1971 3.31734 11.1891 3.35883 11.1895 3.40131V4.80864C11.189 4.89425 11.2225 4.97618 11.2827 5.03712C11.3428 5.09806 11.4246 5.13294 11.5102 5.13366H12.9013C12.9869 5.13294 13.0687 5.09806 13.1288 5.03712C13.189 4.97618 13.2225 4.89425 13.222 4.80864V3.40131C13.2224 3.35883 13.2144 3.31734 13.1984 3.27796C13.1825 3.23857 13.159 3.20206 13.1292 3.17176C13.0995 3.14147 13.064 3.11756 13.0249 3.10097C12.9858 3.08438 12.9438 3.07558 12.9013 3.07522H11.5102Z" fill="#EAEEF0"/>
<path d="M28.163 0H21.3062C21.1357 0.00116157 20.9727 0.069959 20.8529 0.191273C20.7332 0.312586 20.6665 0.476489 20.6675 0.646961V15.8291C20.6665 15.9996 20.7332 16.1635 20.8529 16.2848C20.9727 16.4061 21.1357 16.4749 21.3062 16.4761H28.163C28.3335 16.4749 28.4965 16.4061 28.6163 16.2848C28.7361 16.1635 28.8028 15.9996 28.8017 15.8291V0.646961C28.8028 0.476489 28.7361 0.312586 28.6163 0.191273C28.4965 0.069959 28.3335 0.00116157 28.163 0Z" fill="#EAEEF0"/>
<path d="M48.8308 16.476H33.8343C33.6641 16.4748 33.5011 16.4061 33.3814 16.285C33.2617 16.164 33.1948 16.0005 33.1956 15.8302V0.646719C33.1948 0.476437 33.2617 0.312986 33.3814 0.19191C33.5011 0.0708345 33.6641 0.00213833 33.8343 0.000976562H48.8308C49.0011 0.00213833 49.164 0.0708345 49.2837 0.19191C49.4035 0.312986 49.4703 0.476437 49.4696 0.646719V15.8302C49.4703 16.0005 49.4035 16.164 49.2837 16.285C49.164 16.4061 49.0011 16.4748 48.8308 16.476ZM40.6433 11.3133C40.5579 11.3144 40.4765 11.3497 40.4169 11.4109C40.3572 11.472 40.3242 11.5539 40.3253 11.6394V13.0478C40.3247 13.1327 40.3579 13.2146 40.4175 13.2752C40.4771 13.3357 40.5583 13.3699 40.6433 13.3706H42.0344C42.1197 13.3702 42.2014 13.3357 42.2616 13.2752C42.3217 13.2146 42.3553 13.1331 42.3552 13.0478V11.6394C42.3555 11.5969 42.3475 11.5554 42.3316 11.516C42.3156 11.4766 42.2922 11.4401 42.2624 11.4098C42.2326 11.3795 42.1972 11.3556 42.1581 11.339C42.1189 11.3224 42.0769 11.3136 42.0344 11.3133H40.6433Z" fill="#EAEEF0"/>
<path d="M61.3613 16.476H54.5018C54.3315 16.4748 54.1686 16.4061 54.0489 16.285C53.9291 16.164 53.8623 16.0005 53.863 15.8302V0.646719C53.8623 0.476437 53.9291 0.312986 54.0489 0.19191C54.1686 0.0708345 54.3315 0.00213833 54.5018 0.000976562H61.3613C61.5316 0.00213833 61.6944 0.0708345 61.8141 0.19191C61.9339 0.312986 62.0007 0.476437 62 0.646719V15.8302C62.0007 16.0005 61.9339 16.164 61.8141 16.285C61.6944 16.4061 61.5316 16.4748 61.3613 16.476ZM57.2363 3.07522C57.1938 3.07558 57.1518 3.08438 57.1127 3.10097C57.0736 3.11756 57.0381 3.14147 57.0084 3.17176C56.9786 3.20206 56.955 3.23857 56.939 3.27796C56.9231 3.31734 56.9152 3.35883 56.9156 3.40131V4.80864C56.9151 4.89425 56.9486 4.97618 57.0088 5.03712C57.0689 5.09806 57.1507 5.13294 57.2363 5.13366H58.6274C58.713 5.13294 58.7948 5.09806 58.8549 5.03712C58.9151 4.97618 58.9486 4.89425 58.9481 4.80864V3.40131C58.9485 3.35883 58.9405 3.31734 58.9245 3.27796C58.9086 3.23857 58.8851 3.20206 58.8553 3.17176C58.8256 3.14147 58.79 3.11756 58.7509 3.10097C58.7118 3.08438 58.6699 3.07558 58.6274 3.07522H57.2363Z" fill="#EAEEF0"/>
</svg>
