<svg width="22" height="32" viewBox="0 0 22 32" fill="none" xmlns="http://www.w3.org/2000/svg">
<path d="M11.414 1.70282L8.69475 4.42203L1.7028 11.414C-0.567602 13.6844 -0.567602 17.3787 1.7028 19.6491L8.69475 26.641L11.414 29.3597C13.6844 31.6301 17.3787 31.6301 19.6491 29.3597C20.784 28.2248 21.352 26.7333 21.352 25.2424C21.352 23.7515 20.784 22.2601 19.6491 21.1251L14.0552 15.5313L19.6491 9.93791C21.9195 7.66751 21.9195 3.97323 19.6491 1.70282C17.3787 -0.567586 13.6844 -0.567586 11.414 1.70282ZM18.4059 22.3677C19.9907 23.9531 19.9907 26.5317 18.4059 28.1171C16.8211 29.7019 14.2419 29.7019 12.6571 28.1171L9.9379 25.3979C9.16993 24.6299 8.74749 23.6092 8.74749 22.5232C8.74749 21.4377 9.16993 20.4165 9.9379 19.6491L12.8126 16.7744L18.4059 22.3677ZM8.69475 18.4059C7.61201 19.4887 7.00884 20.9224 6.99071 22.4501L2.94595 18.4059C1.36111 16.8211 1.36111 14.242 2.94595 12.6571L6.99071 8.61237C7.00883 10.1406 7.61201 11.5744 8.69475 12.6571L11.5694 15.5313L8.69475 18.4059ZM18.4059 2.94596C19.9907 4.5308 19.9907 7.10994 18.4059 8.69477L12.8126 14.2887L9.9379 11.414C9.16992 10.646 8.74749 9.62534 8.74749 8.53931C8.74749 7.45327 9.16992 6.4326 9.9379 5.66518L12.6571 2.94596C14.2419 1.36113 16.8211 1.36113 18.4059 2.94596Z" fill="#7C70FB"/>
</svg>
