<svg width="64" height="24" viewBox="0 0 64 24" fill="none" xmlns="http://www.w3.org/2000/svg">
<path d="M4.78289 6.60412C4.78289 9.23177 3.60854 10.1714 1.35653 10.1714C0.889876 10.1714 0.431623 10.1419 0 10.0744V8.27383C0.266261 8.31743 0.672661 8.33572 0.982365 8.33572C1.95492 8.33572 2.49164 7.95029 2.49164 6.7279V0.539994H4.78429V6.60552L4.78289 6.60412Z" fill="#101828"/>
<path d="M12.992 8.03196C12.992 8.93222 13.0326 9.82264 13.0467 9.97175H10.9866C10.9334 9.80717 10.918 9.38376 10.9068 9.18964C10.5368 9.78747 9.74221 10.1588 8.44594 10.1588C6.55969 10.1588 5.79874 9.00537 5.79874 7.89973C5.79874 6.08232 7.38369 5.57874 9.41569 5.57874H10.8605V5.3607C10.8605 4.79944 10.6181 4.3465 9.60627 4.3465C8.66455 4.3465 8.45575 4.70098 8.36746 5.09766H6.18692C6.24578 4.24381 6.84557 2.86388 9.57264 2.86388C12.5674 2.86388 12.992 4.27898 12.992 5.43666V8.03336V8.03196ZM10.8605 6.96289C10.7021 6.95164 10.2271 6.95164 9.45493 6.95164C8.34644 6.95164 7.91061 7.24423 7.91061 7.79001C7.91061 8.24014 8.27216 8.60447 9.06394 8.60447C10.2593 8.60447 10.8605 8.05447 10.8605 7.0698V6.96289Z" fill="#101828"/>
<path d="M16.6501 0V3.91756C16.9121 3.53213 17.5063 2.86396 18.9371 2.86396C20.6384 2.86396 21.6418 3.83738 21.6418 5.81936V9.97183H19.4374V6.06272C19.4374 5.17793 19.2006 4.56462 18.2098 4.56462C17.219 4.56462 16.6627 5.32984 16.6627 6.64929V9.97183H14.4821V0H16.6501Z" fill="#101828"/>
<path d="M24.8741 7.04294C24.9302 7.8785 25.5356 8.5326 26.5684 8.5326C27.3924 8.5326 27.7806 8.2794 28.0314 7.85458H30.2119C29.7957 9.08119 28.7601 10.1587 26.5459 10.1587C23.7236 10.1587 22.7048 8.2794 22.7048 6.51966C22.7048 4.57003 24.0109 2.86234 26.5291 2.86234C29.2128 2.86234 30.2946 4.71773 30.2946 6.51966C30.2946 6.69409 30.2946 6.82069 30.2834 7.04153H24.8755L24.8741 7.04294ZM28.0819 5.70239C28.0384 5.17489 27.7553 4.39419 26.5263 4.39419C25.3814 4.39419 24.9652 5.02157 24.9007 5.70239H28.0819Z" fill="#101828"/>
<path d="M33.0418 7.84487C33.217 8.33861 33.678 8.66496 34.6071 8.66496C35.5362 8.66496 35.7955 8.37518 35.7955 8.04743C35.7955 7.6606 35.4942 7.47211 34.1138 7.2808C31.4863 6.90804 31.1219 5.93462 31.1219 5.09063C31.1219 4.04266 31.9151 2.86388 34.3072 2.86388C36.6994 2.86388 37.5934 4.01453 37.6943 5.00763H35.546C35.4508 4.68129 35.2041 4.31133 34.2287 4.31133C33.4033 4.31133 33.2576 4.62784 33.2576 4.87259C33.2576 5.15955 33.479 5.33538 34.7627 5.52528C37.5626 5.9501 37.9312 6.89397 37.9312 7.85472C37.9312 9.1179 36.9768 10.1602 34.46 10.1602C32.5737 10.1602 31.0967 9.36266 30.8809 7.84628H33.0404L33.0418 7.84487Z" fill="#101828"/>
<path d="M41.0165 0V3.91756C41.2786 3.53213 41.8728 2.86396 43.3036 2.86396C45.0049 2.86396 46.0082 3.83738 46.0082 5.81936V9.97183H43.8039V6.06272C43.8039 5.17793 43.567 4.56462 42.5763 4.56462C41.5855 4.56462 41.0292 5.32984 41.0292 6.64929V9.97183H38.8486V0H41.0165Z" fill="#101828"/>
<path d="M2.04855 14.0229V23.5629H0.977894V14.0229H2.04855Z" fill="#101828"/>
<path d="M4.01872 18.5228C4.01872 17.9559 4.01872 17.3314 4.00471 16.825H4.98147C5.00809 17.0683 5.02351 17.6704 5.02631 18.1824C5.31359 17.4819 6.0381 16.6379 7.51655 16.6379C9.06928 16.6379 10.1035 17.5972 10.1035 19.4779V23.5629H9.09029V19.6721C9.09029 18.4651 8.63064 17.5283 7.29513 17.5283C5.77885 17.5283 5.02631 18.7085 5.02631 20.3712V23.5629H4.01592V18.5242L4.01872 18.5228Z" fill="#101828"/>
<path d="M12.0379 18.5228C12.0379 17.9559 12.0379 17.3314 12.0239 16.825H13.0007C13.0273 17.0683 13.0427 17.6704 13.0455 18.1824C13.3328 17.4819 14.0573 16.6379 15.5358 16.6379C17.0885 16.6379 18.1227 17.5972 18.1227 19.4779V23.5629H17.1095V19.6721C17.1095 18.4651 16.6499 17.5283 15.3144 17.5283C13.7981 17.5283 13.0455 18.7085 13.0455 20.3712V23.5629H12.0351V18.5242L12.0379 18.5228Z" fill="#101828"/>
<path d="M26.4678 20.1925C26.4678 22.0043 25.327 23.75 22.9405 23.75C20.7375 23.75 19.4721 22.0648 19.4721 20.2038C19.4721 18.2485 20.8216 16.6379 22.9994 16.6379C25.1771 16.6379 26.4664 18.3793 26.4664 20.1925H26.4678ZM20.5105 20.2038C20.5105 21.5499 21.3934 22.8792 22.9769 22.8792C24.5605 22.8792 25.4279 21.6512 25.4279 20.2094C25.4279 18.7676 24.5255 17.5072 22.9419 17.5072C21.3584 17.5072 20.5119 18.7605 20.5119 20.2038H20.5105Z" fill="#101828"/>
<path d="M27.9325 16.825C28.4538 18.0671 30.1761 21.9002 30.4269 22.5923H30.4423C30.6077 22.0958 31.0547 21.0084 32.8905 16.825H33.9275L30.9412 23.5629H29.8552L26.8296 16.825H27.9325Z" fill="#101828"/>
<path d="M40.3885 21.9607C40.3885 22.5515 40.4291 23.404 40.4529 23.5629H39.4888C39.4355 23.2914 39.4103 22.7442 39.4089 22.5107C39.0572 23.2436 38.3018 23.75 36.8332 23.75C34.9175 23.75 34.2336 22.5867 34.2336 21.5964C34.2336 19.8845 35.799 19.4104 37.6964 19.4104H39.4005V19.0095C39.4005 18.2176 39.0614 17.4552 37.503 17.4552C36.1087 17.4552 35.7766 18.0896 35.6294 18.7746H34.6204C34.7073 17.8631 35.3085 16.6365 37.5073 16.6365C39.706 16.6365 40.3885 17.7815 40.3885 18.89V21.9607ZM39.4005 20.1771C39.1749 20.1743 38.7292 20.1743 37.7259 20.1743C36.0512 20.1743 35.2398 20.5344 35.2398 21.5429C35.2398 22.2814 35.7752 22.9074 36.9887 22.9074C38.9521 22.9074 39.4005 21.7117 39.4005 20.5245V20.1771Z" fill="#101828"/>
<path d="M41.1451 16.825H42.5156V14.6024H43.526V16.825H45.3338V17.6619H43.526V21.5992C43.526 22.4291 43.7446 22.7963 44.5 22.7963C44.6976 22.7963 44.9876 22.785 45.1852 22.733V23.5108C44.8994 23.6178 44.5896 23.6262 44.2351 23.6262C42.922 23.6262 42.5156 23.0312 42.5156 21.7005V17.6605H41.1451V16.8236V16.825Z" fill="#101828"/>
<path d="M46.5076 13.4645H47.5151V14.9331H46.5076V13.4645ZM46.5076 16.825H47.5151V23.5629H46.5076V16.825Z" fill="#101828"/>
<path d="M55.8634 20.1925C55.8634 22.0043 54.7227 23.75 52.3361 23.75C50.1332 23.75 48.8677 22.0648 48.8677 20.2038C48.8677 18.2485 50.2173 16.6379 52.395 16.6379C54.5727 16.6379 55.862 18.3793 55.862 20.1925H55.8634ZM49.9062 20.2038C49.9062 21.5499 50.789 22.8792 52.3726 22.8792C53.9561 22.8792 54.8236 21.6512 54.8236 20.2094C54.8236 18.7676 53.9225 17.5072 52.3375 17.5072C50.7526 17.5072 49.9076 18.7605 49.9076 20.2038H49.9062Z" fill="#101828"/>
<path d="M57.2182 18.5228C57.2182 17.9559 57.2182 17.3314 57.2056 16.825H58.1823C58.209 17.0683 58.2244 17.6704 58.2272 18.1824C58.5131 17.4819 59.239 16.6379 60.7174 16.6379C62.2701 16.6379 63.3044 17.5972 63.3044 19.4779V23.5629H62.2912V19.6721C62.2912 18.4651 61.8315 17.5283 60.496 17.5283C58.9797 17.5283 58.2272 18.7085 58.2272 20.3712V23.5629H57.2168V18.5242L57.2182 18.5228Z" fill="#101828"/>
</svg>
