<svg width="32" height="32" viewBox="0 0 32 32" fill="none" xmlns="http://www.w3.org/2000/svg">
<path d="M9.33335 29.3334V14.6667M2.66669 17.3334V26.6667C2.66669 28.1395 3.86059 29.3334 5.33335 29.3334H23.235C25.2093 29.3334 26.8883 27.893 27.1885 25.9416L28.6244 16.6083C28.9972 14.1853 27.1225 12.0001 24.6709 12.0001H20C19.2636 12.0001 18.6667 11.4031 18.6667 10.6667V5.95453C18.6667 4.13874 17.1947 2.66675 15.3789 2.66675C14.9458 2.66675 14.5533 2.92181 14.3774 3.31758L9.68527 13.8749C9.47127 14.3564 8.99377 14.6667 8.46686 14.6667H5.33335C3.86059 14.6667 2.66669 15.8607 2.66669 17.3334Z" stroke="#344054" stroke-width="2.4" stroke-linecap="round" stroke-linejoin="round"/>
</svg>
